<mxfile host="app.diagrams.net" modified="2020-11-06T14:42:51.415Z" agent="5.0 (Macintosh; Intel Mac OS X 10_13_6) AppleWebKit/537.36 (KHTML, like Gecko) Chrome/86.0.4240.183 Safari/537.36" etag="H7JxrzsaSaf9QphzJieN" version="13.9.2" type="github">
  <diagram id="Dn0wOxLBmENqeKxKqZvE" name="Page-1">
    <mxGraphModel dx="1965" dy="1305" grid="1" gridSize="10" guides="1" tooltips="1" connect="1" arrows="1" fold="1" page="1" pageScale="1" pageWidth="1169" pageHeight="827" math="0" shadow="0">
      <root>
        <mxCell id="0" />
        <mxCell id="1" parent="0" />
        <mxCell id="Uhuhm2NpRg7gFNqSgzds-164" value="" style="edgeStyle=orthogonalEdgeStyle;rounded=0;orthogonalLoop=1;jettySize=auto;html=1;" edge="1" parent="1" source="Uhuhm2NpRg7gFNqSgzds-71" target="Uhuhm2NpRg7gFNqSgzds-163">
          <mxGeometry relative="1" as="geometry" />
        </mxCell>
        <mxCell id="Uhuhm2NpRg7gFNqSgzds-71" value="DNS Servers" style="whiteSpace=wrap;html=1;" vertex="1" parent="1">
          <mxGeometry x="700" y="320" width="120" height="120" as="geometry" />
        </mxCell>
        <mxCell id="Uhuhm2NpRg7gFNqSgzds-159" style="edgeStyle=orthogonalEdgeStyle;rounded=0;orthogonalLoop=1;jettySize=auto;html=1;exitX=1;exitY=0.25;exitDx=0;exitDy=0;entryX=0;entryY=0.25;entryDx=0;entryDy=0;" edge="1" parent="1" source="Uhuhm2NpRg7gFNqSgzds-83" target="Uhuhm2NpRg7gFNqSgzds-71">
          <mxGeometry relative="1" as="geometry" />
        </mxCell>
        <mxCell id="Uhuhm2NpRg7gFNqSgzds-83" value="Vendors" style="whiteSpace=wrap;html=1;aspect=fixed;" vertex="1" parent="1">
          <mxGeometry x="280" y="280" width="120" height="120" as="geometry" />
        </mxCell>
        <mxCell id="Uhuhm2NpRg7gFNqSgzds-158" value="Http Requests &amp;amp; Responses" style="edgeStyle=orthogonalEdgeStyle;rounded=0;orthogonalLoop=1;jettySize=auto;html=1;exitX=1;exitY=0.5;exitDx=0;exitDy=0;entryX=0.5;entryY=0;entryDx=0;entryDy=0;" edge="1" parent="1" source="Uhuhm2NpRg7gFNqSgzds-84" target="Uhuhm2NpRg7gFNqSgzds-71">
          <mxGeometry x="-0.1852" relative="1" as="geometry">
            <mxPoint as="offset" />
          </mxGeometry>
        </mxCell>
        <mxCell id="Uhuhm2NpRg7gFNqSgzds-84" value="Merchants" style="whiteSpace=wrap;html=1;aspect=fixed;" vertex="1" parent="1">
          <mxGeometry x="280" y="80" width="120" height="120" as="geometry" />
        </mxCell>
        <mxCell id="Uhuhm2NpRg7gFNqSgzds-166" style="edgeStyle=orthogonalEdgeStyle;rounded=0;orthogonalLoop=1;jettySize=auto;html=1;exitX=0.5;exitY=1;exitDx=0;exitDy=0;entryX=0.5;entryY=0;entryDx=0;entryDy=0;entryPerimeter=0;" edge="1" parent="1" source="Uhuhm2NpRg7gFNqSgzds-130" target="Uhuhm2NpRg7gFNqSgzds-150">
          <mxGeometry relative="1" as="geometry" />
        </mxCell>
        <mxCell id="Uhuhm2NpRg7gFNqSgzds-168" style="edgeStyle=orthogonalEdgeStyle;rounded=0;orthogonalLoop=1;jettySize=auto;html=1;exitX=0.5;exitY=1;exitDx=0;exitDy=0;entryX=0.5;entryY=0;entryDx=0;entryDy=0;entryPerimeter=0;" edge="1" parent="1" source="Uhuhm2NpRg7gFNqSgzds-130" target="Uhuhm2NpRg7gFNqSgzds-141">
          <mxGeometry relative="1" as="geometry" />
        </mxCell>
        <mxCell id="Uhuhm2NpRg7gFNqSgzds-169" style="edgeStyle=orthogonalEdgeStyle;rounded=0;orthogonalLoop=1;jettySize=auto;html=1;exitX=0.5;exitY=1;exitDx=0;exitDy=0;entryX=0.5;entryY=0;entryDx=0;entryDy=0;entryPerimeter=0;" edge="1" parent="1" source="Uhuhm2NpRg7gFNqSgzds-130" target="Uhuhm2NpRg7gFNqSgzds-142">
          <mxGeometry relative="1" as="geometry" />
        </mxCell>
        <mxCell id="Uhuhm2NpRg7gFNqSgzds-170" style="edgeStyle=orthogonalEdgeStyle;rounded=0;orthogonalLoop=1;jettySize=auto;html=1;exitX=0.5;exitY=1;exitDx=0;exitDy=0;entryX=0.5;entryY=0;entryDx=0;entryDy=0;entryPerimeter=0;" edge="1" parent="1" source="Uhuhm2NpRg7gFNqSgzds-130" target="Uhuhm2NpRg7gFNqSgzds-143">
          <mxGeometry relative="1" as="geometry" />
        </mxCell>
        <mxCell id="Uhuhm2NpRg7gFNqSgzds-171" style="edgeStyle=orthogonalEdgeStyle;rounded=0;orthogonalLoop=1;jettySize=auto;html=1;exitX=0.5;exitY=1;exitDx=0;exitDy=0;entryX=0.5;entryY=0;entryDx=0;entryDy=0;entryPerimeter=0;" edge="1" parent="1" source="Uhuhm2NpRg7gFNqSgzds-130" target="Uhuhm2NpRg7gFNqSgzds-144">
          <mxGeometry relative="1" as="geometry" />
        </mxCell>
        <mxCell id="Uhuhm2NpRg7gFNqSgzds-130" value="&lt;span style=&quot;color: rgb(0 , 0 , 0) ; font-family: &amp;#34;helvetica&amp;#34; ; font-size: 12px ; font-style: normal ; font-weight: 400 ; letter-spacing: normal ; text-align: center ; text-indent: 0px ; text-transform: none ; word-spacing: 0px ; background-color: rgb(248 , 249 , 250) ; display: inline ; float: none&quot;&gt;Database Server&lt;br&gt;&lt;/span&gt;" style="whiteSpace=wrap;html=1;aspect=fixed;" vertex="1" parent="1">
          <mxGeometry x="1080" y="600" width="120" height="120" as="geometry" />
        </mxCell>
        <mxCell id="Uhuhm2NpRg7gFNqSgzds-141" value="&lt;meta charset=&quot;utf-8&quot;&gt;&lt;span style=&quot;color: rgb(0, 0, 0); font-family: helvetica; font-size: 12px; font-style: normal; font-weight: 400; letter-spacing: normal; text-align: center; text-indent: 0px; text-transform: none; word-spacing: 0px; background-color: rgb(248, 249, 250); display: inline; float: none;&quot;&gt;Merchant Database&lt;/span&gt;" style="shape=cylinder3;whiteSpace=wrap;html=1;boundedLbl=1;backgroundOutline=1;size=15;" vertex="1" parent="1">
          <mxGeometry x="860" y="860" width="80" height="100" as="geometry" />
        </mxCell>
        <mxCell id="Uhuhm2NpRg7gFNqSgzds-142" value="&lt;span style=&quot;color: rgb(0 , 0 , 0) ; font-family: &amp;#34;helvetica&amp;#34; ; font-size: 12px ; font-style: normal ; font-weight: 400 ; letter-spacing: normal ; text-align: center ; text-indent: 0px ; text-transform: none ; word-spacing: 0px ; background-color: rgb(248 , 249 , 250) ; display: inline ; float: none&quot;&gt;Vendor Database&lt;/span&gt;" style="shape=cylinder3;whiteSpace=wrap;html=1;boundedLbl=1;backgroundOutline=1;size=15;" vertex="1" parent="1">
          <mxGeometry x="1020.5" y="860" width="79.5" height="100" as="geometry" />
        </mxCell>
        <mxCell id="Uhuhm2NpRg7gFNqSgzds-143" value="&lt;span style=&quot;color: rgb(0 , 0 , 0) ; font-family: &amp;#34;helvetica&amp;#34; ; font-size: 12px ; font-style: normal ; font-weight: 400 ; letter-spacing: normal ; text-align: center ; text-indent: 0px ; text-transform: none ; word-spacing: 0px ; background-color: rgb(248 , 249 , 250) ; display: inline ; float: none&quot;&gt;Blog Database&lt;/span&gt;" style="shape=cylinder3;whiteSpace=wrap;html=1;boundedLbl=1;backgroundOutline=1;size=15;" vertex="1" parent="1">
          <mxGeometry x="1180" y="860" width="80" height="100" as="geometry" />
        </mxCell>
        <mxCell id="Uhuhm2NpRg7gFNqSgzds-144" value="&lt;span style=&quot;color: rgb(0 , 0 , 0) ; font-family: &amp;#34;helvetica&amp;#34; ; font-size: 12px ; font-style: normal ; font-weight: 400 ; letter-spacing: normal ; text-align: center ; text-indent: 0px ; text-transform: none ; word-spacing: 0px ; background-color: rgb(248 , 249 , 250) ; display: inline ; float: none&quot;&gt;CRS&lt;br&gt;&amp;nbsp;Database&lt;/span&gt;" style="shape=cylinder3;whiteSpace=wrap;html=1;boundedLbl=1;backgroundOutline=1;size=15;" vertex="1" parent="1">
          <mxGeometry x="1340" y="860" width="80" height="100" as="geometry" />
        </mxCell>
        <mxCell id="Uhuhm2NpRg7gFNqSgzds-150" value="&lt;span style=&quot;color: rgb(0 , 0 , 0) ; font-family: &amp;#34;helvetica&amp;#34; ; font-size: 12px ; font-style: normal ; font-weight: 400 ; letter-spacing: normal ; text-align: center ; text-indent: 0px ; text-transform: none ; word-spacing: 0px ; background-color: rgb(248 , 249 , 250) ; display: inline ; float: none&quot;&gt;Company&lt;br&gt;&amp;nbsp;Database&lt;/span&gt;" style="shape=cylinder3;whiteSpace=wrap;html=1;boundedLbl=1;backgroundOutline=1;size=15;" vertex="1" parent="1">
          <mxGeometry x="700" y="860" width="80" height="100" as="geometry" />
        </mxCell>
        <mxCell id="Uhuhm2NpRg7gFNqSgzds-160" style="edgeStyle=orthogonalEdgeStyle;rounded=0;orthogonalLoop=1;jettySize=auto;html=1;exitX=1;exitY=0.5;exitDx=0;exitDy=0;entryX=0;entryY=0.633;entryDx=0;entryDy=0;entryPerimeter=0;" edge="1" parent="1" source="Uhuhm2NpRg7gFNqSgzds-151" target="Uhuhm2NpRg7gFNqSgzds-71">
          <mxGeometry relative="1" as="geometry" />
        </mxCell>
        <mxCell id="Uhuhm2NpRg7gFNqSgzds-151" value="Company" style="whiteSpace=wrap;html=1;aspect=fixed;" vertex="1" parent="1">
          <mxGeometry x="280" y="480" width="120" height="120" as="geometry" />
        </mxCell>
        <mxCell id="Uhuhm2NpRg7gFNqSgzds-161" style="edgeStyle=orthogonalEdgeStyle;rounded=0;orthogonalLoop=1;jettySize=auto;html=1;exitX=1;exitY=0.5;exitDx=0;exitDy=0;entryX=0.5;entryY=1;entryDx=0;entryDy=0;" edge="1" parent="1" source="Uhuhm2NpRg7gFNqSgzds-152" target="Uhuhm2NpRg7gFNqSgzds-71">
          <mxGeometry relative="1" as="geometry" />
        </mxCell>
        <mxCell id="Uhuhm2NpRg7gFNqSgzds-152" value="Blog" style="whiteSpace=wrap;html=1;aspect=fixed;" vertex="1" parent="1">
          <mxGeometry x="280" y="680" width="120" height="120" as="geometry" />
        </mxCell>
        <mxCell id="Uhuhm2NpRg7gFNqSgzds-165" style="edgeStyle=orthogonalEdgeStyle;rounded=0;orthogonalLoop=1;jettySize=auto;html=1;exitX=1;exitY=0.5;exitDx=0;exitDy=0;entryX=0.5;entryY=0;entryDx=0;entryDy=0;" edge="1" parent="1" source="Uhuhm2NpRg7gFNqSgzds-163" target="Uhuhm2NpRg7gFNqSgzds-130">
          <mxGeometry relative="1" as="geometry" />
        </mxCell>
        <mxCell id="Uhuhm2NpRg7gFNqSgzds-174" style="edgeStyle=orthogonalEdgeStyle;rounded=0;orthogonalLoop=1;jettySize=auto;html=1;exitX=1;exitY=0.5;exitDx=0;exitDy=0;entryX=0;entryY=0.5;entryDx=0;entryDy=0;" edge="1" parent="1" source="Uhuhm2NpRg7gFNqSgzds-163" target="Uhuhm2NpRg7gFNqSgzds-173">
          <mxGeometry relative="1" as="geometry" />
        </mxCell>
        <mxCell id="Uhuhm2NpRg7gFNqSgzds-163" value="WEB Server" style="whiteSpace=wrap;html=1;" vertex="1" parent="1">
          <mxGeometry x="900" y="320" width="120" height="120" as="geometry" />
        </mxCell>
        <mxCell id="Uhuhm2NpRg7gFNqSgzds-173" value="Amazon SES" style="whiteSpace=wrap;html=1;aspect=fixed;" vertex="1" parent="1">
          <mxGeometry x="1160" y="120" width="120" height="120" as="geometry" />
        </mxCell>
        <mxCell id="Uhuhm2NpRg7gFNqSgzds-175" value="&lt;font style=&quot;font-size: 36px&quot;&gt;Basic System Representation&lt;/font&gt;" style="text;html=1;align=center;verticalAlign=middle;resizable=0;points=[];autosize=1;" vertex="1" parent="1">
          <mxGeometry x="700" y="1130" width="490" height="30" as="geometry" />
        </mxCell>
      </root>
    </mxGraphModel>
  </diagram>
</mxfile>
